:SAMPLES-PER-SECOND 30
:FRAME-RANGE 1-3358
:FULLY-SPECIFIED
:DEGREES
2729
root  -27.3358 35.0367 -63.7955 152.677 80.8109 155.713
RightUpLeg  -16.5987 4.59892 -17.8409
RightLeg  52.0699 -0.715378 -1.35889
RightFoot  -29.52 2.11635 14.4224
RightToes  -1.11029e-010 1.2921e-014 -6.02303e-014
Spine  4.12187 -1.29302 -1.37064
Spine1  3.17321 -2.88762 4.72107
HEad  -3.66955 44.3264 -21.9321
LeftShoulder1  0.971096 -5.52401 -3.17249
LeftArm  -26.1261 -27.5453 -15.2529
LeftForeArm  10.7216 -31.2543 -6.254
LeftHand  -0.323256 3.28751 17.4999
RightShoulder  1.77944 2.44141 24.8874
RightArm  -23.6138 2.82872 50.8024
RightForeArm  45.9871 9.59546 6.46748
RightHand  -1.38802 -0.762651 -34.0716
LeftUpLeg  -24.6274 -9.88226 19.6079
LeftLeg  31.5115 -5.34487 -3.17279
LeftFoot  -9.03715 0.535295 -23.6413
LeftToes  -1.90334e-010 -8.83595e-011 4.99953e-011
2730
root  -27.2436 35.3891 -64.9215 153.74 81.0859 156.265
RightUpLeg  -16.1417 6.51885 -18.5511
RightLeg  50.3835 -3.03638 -4.28057
RightFoot  -26.4669 1.7324 14.3419
RightToes  -1.11029e-010 1.2921e-014 -6.02303e-014
Spine  3.66871 -0.35558 -1.48675
Spine1  3.96456 -1.71975 3.60662
HEad  -3.50082 43.3209 -21.2015
LeftShoulder1  0.815232 -5.91923 -0.718104
LeftArm  -26.7682 -31.3132 -14.3392
LeftForeArm  7.89467 -27.2251 -5.44285
LeftHand  -0.313697 3.37581 17.7102
RightShoulder  1.95453 2.86039 25.6737
RightArm  -20.3024 2.23306 54.172
RightForeArm  43.454 9.43073 7.61677
RightHand  -1.43272 -0.664067 -34.4154
LeftUpLeg  -24.7028 -7.76395 17.7679
LeftLeg  32.019 -6.85975 -4.25034
LeftFoot  -9.9681 0.325229 -21.9499
LeftToes  -1.90334e-010 -8.83595e-011 4.99953e-011
2731
root  -27.1716 35.8667 -65.9857 157.377 81.5695 159.093
RightUpLeg  -16.7384 5.89411 -18.0395
RightLeg  50.1514 -6.41045 -8.51088
RightFoot  -22.751 0.743107 8.97063
RightToes  -1.11029e-010 1.2921e-014 -6.02303e-014
Spine  3.55187 -0.0299478 -1.46914
Spine1  3.80671 -1.31512 3.7693
HEad  -4.08926 43.6802 -21.9148
LeftShoulder1  0.649048 -5.97524 1.38389
LeftArm  -29.708 -33.2127 -11.3256
LeftForeArm  5.86308 -24.1212 -4.8538
LeftHand  -0.317125 3.39151 18.0549
RightShoulder  2.06921 3.1008 26.3089
RightArm  -13.2583 2.30626 57.8048
RightForeArm  39.3493 10.9529 8.84782
RightHand  -1.58813 -0.252749 -35.0549
LeftUpLeg  -24.6456 -5.7873 16.4116
LeftLeg  31.4837 -8.01098 -4.91194
LeftFoot  -10.1364 0.277672 -20.4759
LeftToes  -1.90334e-010 -8.83595e-011 4.99953e-011
2732
root  -27.0589 36.2965 -66.886 159.901 81.4413 160.776
RightUpLeg  -16.9392 3.14151 -17.547
RightLeg  49.3849 -5.17488 -6.77539
RightFoot  -22.2842 0.553767 7.35248
RightToes  -1.11029e-010 1.2921e-014 -6.02303e-014
Spine  3.20783 -0.181163 -2.45996
Spine1  3.85663 -1.58182 4.28945
HEad  -5.09424 44.1709 -23.3587
LeftShoulder1  0.515759 -5.51331 2.69207
LeftArm  -35.0789 -34.1184 -7.17374
LeftForeArm  2.71461 -21.8584 -4.68066
LeftHand  -0.303924 3.51604 18.4319
RightShoulder  2.17352 3.41519 26.3597
RightArm  -0.407442 1.02928 61.5087
RightForeArm  28.0018 17.4444 6.7575
RightHand  -1.5801 -0.327456 -35.3722
LeftUpLeg  -24.5565 -6.24875 15.0947
LeftLeg  30.3412 -7.65368 -4.46706
LeftFoot  -10.2508 0.252721 -19.9644
LeftToes  -1.90334e-010 -8.83595e-011 4.99953e-011
2733
root  -26.9351 36.6347 -67.6183 159.487 81.9616 159.546
RightUpLeg  -17.1723 0.847018 -16.7735
RightLeg  48.2467 1.29302 1.22152
RightFoot  -25.1188 0.943421 9.20604
RightToes  -1.11029e-010 1.2921e-014 -6.02303e-014
Spine  2.83857 0.0296675 -3.06858
Spine1  3.81245 -1.20016 3.43309
HEad  -4.93596 43.5057 -23.1437
LeftShoulder1  0.370293 -5.02666 4.29866
LeftArm  -42.955 -34.4339 -3.65626
LeftForeArm  2.58752 -20.3648 -4.3768
LeftHand  -0.287718 3.64082 18.6632
RightShoulder  2.17149 3.38808 26.4642
RightArm  7.30903 -0.0461737 63.4609
RightForeArm  20.7958 23.285 3.9802
RightHand  -1.58239 -0.375003 -35.7363
LeftUpLeg  -24.3061 -6.64079 13.9761
LeftLeg  29.4007 -6.70666 -3.7223
LeftFoot  -10.6286 0.187522 -19.8046
LeftToes  -1.90334e-010 -8.83595e-011 4.99953e-011
2734
root  -26.7656 36.998 -68.2718 155.696 83.2428 155.22
RightUpLeg  -16.768 -0.131021 -15.4383
RightLeg  46.412 7.42419 7.97888
RightFoot  -27.0267 1.51867 12.3215
RightToes  -1.11029e-010 1.2921e-014 -6.02303e-014
Spine  2.00892 0.330803 -3.32009
Spine1  3.93288 -0.614352 2.15269
HEad  -3.88138 42.5746 -22.2174
LeftShoulder1  0.315093 -4.88281 4.98122
LeftArm  -49.9169 -33.287 0.225587
LeftForeArm  3.56577 -20.3427 -4.08453
LeftHand  -0.292083 3.65098 19.0753
RightShoulder  2.30774 3.95417 25.7941
RightArm  8.11172 0.751868 64.2933
RightForeArm  21.3922 24.5206 4.12035
RightHand  -1.77818 -0.020323 -37.3874
LeftUpLeg  -23.1473 -6.67686 13.0121
LeftLeg  28.0313 -5.44944 -2.78528
LeftFoot  -11.5487 0.0310466 -20.6096
LeftToes  -1.90334e-010 -8.83595e-011 4.99953e-011
2735
root  -26.543 37.3832 -68.8809 146.453 84.5932 145.532
RightUpLeg  -15.4416 -1.31017 -14.2441
RightLeg  43.1217 11.3165 10.8783
RightFoot  -27.228 2.03863 15.8528
RightToes  -1.11029e-010 1.2921e-014 -6.02303e-014
Spine  0.716912 0.546532 -3.35432
Spine1  4.46516 -0.0038104 0.514407
HEad  -2.32622 40.8203 -20.2847
LeftShoulder1  0.220296 -4.15289 6.00612
LeftArm  -56.28 -31.3939 3.27571
LeftForeArm  5.00467 -21.2521 -4.10365
LeftHand  -0.314447 3.53767 19.3279
RightShoulder  2.38585 4.42936 24.813
RightArm  7.11581 2.07472 64.5918
RightForeArm  22.5843 24.772 4.11073
RightHand  -1.95051 0.31059 -38.5393
LeftUpLeg  -21.5111 -6.60968 11.8011
LeftLeg  26.1579 -3.88168 -1.71878
LeftFoot  -12.047 -0.0571485 -20.7153
LeftToes  -1.90334e-010 -8.83595e-011 4.99953e-011
